<svg width="53" height="53" viewBox="0 0 53 53" fill="none" xmlns="http://www.w3.org/2000/svg">
<circle cx="26.5" cy="26.5" r="26.5" fill="#04B4DD"/>
<path d="M30.6211 22.529C30.543 21.7418 30.208 21.1303 29.616 20.6945C29.024 20.2586 28.2206 20.0407 27.2058 20.0407C26.5162 20.0407 25.934 20.1382 25.4591 20.3334C24.9842 20.5221 24.6199 20.7855 24.3662 21.1238C24.119 21.4621 23.9954 21.8459 23.9954 22.2753C23.9824 22.6331 24.0572 22.9453 24.2198 23.212C24.389 23.4787 24.6199 23.7097 24.9126 23.9048C25.2054 24.0935 25.5437 24.2594 25.9275 24.4025C26.3113 24.5391 26.7211 24.6562 27.157 24.7538L28.9525 25.1832C29.8242 25.3783 30.6243 25.6385 31.3529 25.9638C32.0816 26.2891 32.7126 26.6891 33.246 27.164C33.7795 27.6389 34.1925 28.1984 34.4853 28.8424C34.7845 29.4865 34.9374 30.2248 34.9439 31.0575C34.9374 32.2805 34.6252 33.3409 34.0071 34.2386C33.3956 35.1299 32.5109 35.8227 31.3529 36.3171C30.2015 36.805 28.8126 37.0489 27.1863 37.0489C25.5729 37.0489 24.1678 36.8017 22.9708 36.3073C21.7803 35.8129 20.85 35.0811 20.18 34.1118C19.5164 33.136 19.1684 31.9292 19.1359 30.4915H23.2245C23.27 31.1616 23.4619 31.721 23.8002 32.1699C24.145 32.6123 24.6036 32.9473 25.1761 33.175C25.7551 33.3962 26.4089 33.5068 27.1375 33.5068C27.8531 33.5068 28.4743 33.4027 29.0013 33.1945C29.5347 32.9863 29.9478 32.6969 30.2405 32.326C30.5333 31.9552 30.6796 31.5291 30.6796 31.0477C30.6796 30.5989 30.5463 30.2216 30.2796 29.9158C30.0193 29.6101 29.6355 29.3498 29.1281 29.1352C28.6272 28.9205 28.0124 28.7253 27.2838 28.5497L25.1078 28.0032C23.4229 27.5934 22.0926 26.9526 21.1168 26.0809C20.1409 25.2092 19.6563 24.035 19.6628 22.5582C19.6563 21.3482 19.9783 20.2911 20.6289 19.3869C21.2859 18.4826 22.1869 17.7768 23.3318 17.2694C24.4768 16.762 25.7779 16.5082 27.2351 16.5082C28.7183 16.5082 30.0128 16.762 31.1188 17.2694C32.2312 17.7768 33.0964 18.4826 33.7144 19.3869C34.3324 20.2911 34.6512 21.3385 34.6707 22.529H30.6211Z" fill="white"/>
</svg>
