<svg width="53" height="53" viewBox="0 0 53 53" fill="none" xmlns="http://www.w3.org/2000/svg">
<circle cx="26.5" cy="26.5" r="26.5" fill="#821EF0"/>
<path d="M19.7799 36.766V16.7815H27.7815C29.2517 16.7815 30.478 16.9994 31.4603 17.4353C32.4426 17.8711 33.181 18.4761 33.6754 19.2503C34.1698 20.0179 34.417 20.9026 34.417 21.9044C34.417 22.6851 34.2608 23.3714 33.9486 23.9634C33.6363 24.5489 33.207 25.0303 32.6605 25.4076C32.1206 25.7784 31.5026 26.0419 30.8065 26.198V26.3932C31.5676 26.4257 32.28 26.6404 32.9435 27.0372C33.6136 27.434 34.1568 27.9902 34.5731 28.7058C34.9895 29.4149 35.1976 30.2606 35.1976 31.2429C35.1976 32.3033 34.9342 33.2498 34.4072 34.0825C33.8868 34.9087 33.1159 35.5625 32.0946 36.0439C31.0732 36.5253 29.8144 36.766 28.3182 36.766H19.7799ZM24.0051 33.3116H27.4497C28.6272 33.3116 29.4859 33.0872 30.0259 32.6383C30.5658 32.1829 30.8358 31.5779 30.8358 30.8233C30.8358 30.2704 30.7024 29.7824 30.4357 29.3596C30.169 28.9368 29.7884 28.605 29.294 28.3643C28.8061 28.1236 28.2239 28.0032 27.5473 28.0032H24.0051V33.3116ZM24.0051 25.1441H27.1375C27.7164 25.1441 28.2304 25.0433 28.6792 24.8416C29.1346 24.6335 29.4924 24.3407 29.7526 23.9634C30.0193 23.5861 30.1527 23.134 30.1527 22.607C30.1527 21.8849 29.8957 21.3027 29.3818 20.8603C28.8744 20.418 28.1523 20.1968 27.2155 20.1968H24.0051V25.1441Z" fill="white"/>
</svg>
