<svg width="53" height="53" viewBox="0 0 53 53" fill="none" xmlns="http://www.w3.org/2000/svg">
<circle cx="26.5" cy="26.5" r="26.5" fill="#FF328E"/>
<path d="M36.4127 23.7779H32.1387C32.0606 23.2249 31.9012 22.7338 31.6605 22.3044C31.4198 21.8686 31.1108 21.4978 30.7335 21.192C30.3562 20.8863 29.9203 20.6521 29.4259 20.4894C28.938 20.3268 28.4078 20.2455 27.8354 20.2455C26.801 20.2455 25.9 20.5025 25.1324 21.0164C24.3648 21.5238 23.7695 22.2654 23.3467 23.2412C22.9238 24.2105 22.7124 25.388 22.7124 26.7736C22.7124 28.1983 22.9238 29.3953 23.3467 30.3646C23.776 31.3339 24.3745 32.0657 25.1422 32.5601C25.9098 33.0546 26.7978 33.3018 27.8061 33.3018C28.3721 33.3018 28.8957 33.2269 29.3771 33.0773C29.865 32.9277 30.2977 32.7098 30.675 32.4235C31.0523 32.1308 31.3645 31.7763 31.6117 31.3599C31.8654 30.9436 32.0411 30.4687 32.1387 29.9352L36.4127 29.9547C36.3021 30.872 36.0256 31.7567 35.5833 32.6089C35.1474 33.4546 34.5587 34.2125 33.8171 34.8826C33.082 35.5461 32.2037 36.073 31.1824 36.4634C30.1675 36.8472 29.0193 37.0391 27.7378 37.0391C25.9553 37.0391 24.3615 36.6358 22.9563 35.8291C21.5577 35.0224 20.4518 33.8547 19.6386 32.326C18.8319 30.7972 18.4286 28.9464 18.4286 26.7736C18.4286 24.5943 18.8385 22.7403 19.6581 21.2115C20.4778 19.6828 21.5902 18.5183 22.9954 17.7182C24.4005 16.9115 25.9813 16.5082 27.7378 16.5082C28.8957 16.5082 29.9691 16.6708 30.9579 16.9961C31.9533 17.3213 32.8347 17.7962 33.6024 18.4207C34.37 19.0387 34.9945 19.7966 35.4759 20.6944C35.9638 21.5921 36.2761 22.6199 36.4127 23.7779Z" fill="white"/>
</svg>
