<svg width="22" height="22" viewBox="0 0 22 22" fill="none" xmlns="http://www.w3.org/2000/svg">
<path d="M20.2667 12.8C19.9838 12.8 19.7125 12.9124 19.5124 13.1124C19.3124 13.3125 19.2 13.5838 19.2 13.8667V18.1333C19.2 18.4162 19.0876 18.6875 18.8876 18.8876C18.6875 19.0876 18.4162 19.2 18.1333 19.2H3.2C2.9171 19.2 2.64579 19.0876 2.44575 18.8876C2.24571 18.6875 2.13333 18.4162 2.13333 18.1333V13.8667C2.13333 13.5838 2.02095 13.3125 1.82091 13.1124C1.62088 12.9124 1.34956 12.8 1.06667 12.8C0.783769 12.8 0.512458 12.9124 0.312419 13.1124C0.112381 13.3125 0 13.5838 0 13.8667V18.1333C0 18.982 0.337142 19.796 0.937259 20.3961C1.53738 20.9962 2.35131 21.3333 3.2 21.3333H18.1333C18.982 21.3333 19.796 20.9962 20.3961 20.3961C20.9962 19.796 21.3333 18.982 21.3333 18.1333V13.8667C21.3333 13.5838 21.221 13.3125 21.0209 13.1124C20.8209 12.9124 20.5496 12.8 20.2667 12.8ZM9.90934 14.624C10.0108 14.7211 10.1304 14.7972 10.2613 14.848C10.389 14.9044 10.5271 14.9336 10.6667 14.9336C10.8063 14.9336 10.9443 14.9044 11.072 14.848C11.2029 14.7972 11.3226 14.7211 11.424 14.624L15.6907 10.3573C15.8915 10.1565 16.0044 9.88406 16.0044 9.6C16.0044 9.31595 15.8915 9.04353 15.6907 8.84267C15.4898 8.64181 15.2174 8.52897 14.9333 8.52897C14.6493 8.52897 14.3769 8.64181 14.176 8.84267L11.7333 11.296V1.06667C11.7333 0.783769 11.621 0.512458 11.4209 0.312419C11.2209 0.112381 10.9496 0 10.6667 0C10.3838 0 10.1125 0.112381 9.91242 0.312419C9.71238 0.512458 9.6 0.783769 9.6 1.06667V11.296L7.15733 8.84267C7.05788 8.74321 6.93981 8.66432 6.80987 8.6105C6.67992 8.55667 6.54065 8.52897 6.4 8.52897C6.25935 8.52897 6.12008 8.55667 5.99014 8.6105C5.86019 8.66432 5.74212 8.74321 5.64267 8.84267C5.54321 8.94212 5.46432 9.06019 5.4105 9.19014C5.35667 9.32008 5.32897 9.45935 5.32897 9.6C5.32897 9.74065 5.35667 9.87992 5.4105 10.0099C5.46432 10.1398 5.54321 10.2579 5.64267 10.3573L9.90934 14.624Z" fill="#FF4C9D"/>
</svg>
