<svg width="19" height="20" viewBox="0 0 19 20" fill="none" xmlns="http://www.w3.org/2000/svg">
<path d="M2.77265 19.6779H14.6554C15.3919 19.6758 16.0975 19.3816 16.6173 18.8599C17.1371 18.3382 17.4287 17.6315 17.4281 16.895V10.9243C17.4281 10.7142 17.3446 10.5127 17.196 10.3641C17.0475 10.2156 16.846 10.1321 16.6359 10.1321C16.4258 10.1321 16.2243 10.2156 16.0757 10.3641C15.9272 10.5127 15.8437 10.7142 15.8437 10.9243V16.895C15.8448 17.2114 15.7202 17.5153 15.4974 17.74C15.2747 17.9648 14.9718 18.0919 14.6554 18.0936H2.77265C2.45623 18.0919 2.1534 17.9648 1.93062 17.74C1.70784 17.5153 1.58332 17.2114 1.58437 16.895V5.03282C1.58332 4.7164 1.70784 4.41249 1.93062 4.18778C2.1534 3.96307 2.45623 3.83592 2.77265 3.83425H8.71404C8.92414 3.83425 9.12563 3.75079 9.27419 3.60222C9.42276 3.45366 9.50622 3.25216 9.50622 3.04206C9.50622 2.83196 9.42276 2.63047 9.27419 2.4819C9.12563 2.33334 8.92414 2.24988 8.71404 2.24988H2.77265C2.03616 2.25198 1.33058 2.54618 0.810769 3.06792C0.290955 3.58967 -0.000631444 4.29633 1.02676e-06 5.03282V16.895C-0.000631444 17.6315 0.290955 18.3382 0.810769 18.8599C1.33058 19.3816 2.03616 19.6758 2.77265 19.6779Z" fill="white"/>
<path d="M7.49011 9.01814L6.86508 11.8811C6.83679 12.011 6.84162 12.1458 6.87914 12.2733C6.91666 12.4008 6.98565 12.5169 7.07976 12.6107C7.17517 12.7022 7.29123 12.7693 7.4181 12.8064C7.54497 12.8435 7.67891 12.8495 7.80857 12.8238L10.6652 12.1972C10.8135 12.1646 10.9494 12.0901 11.0565 11.9825L18.2765 4.76252C18.4972 4.54183 18.6723 4.27982 18.7918 3.99146C18.9112 3.7031 18.9727 3.39403 18.9727 3.0819C18.9727 2.76977 18.9112 2.4607 18.7918 2.17234C18.6723 1.88397 18.4972 1.62197 18.2765 1.40128C17.824 0.968853 17.2222 0.727539 16.5963 0.727539C15.9704 0.727539 15.3686 0.968853 14.9161 1.40128L7.70717 8.62838C7.59898 8.73482 7.52364 8.87011 7.49011 9.01814ZM16.0362 2.52222C16.1869 2.37784 16.3876 2.29723 16.5963 2.29723C16.805 2.29723 17.0056 2.37784 17.1564 2.52222C17.3029 2.67165 17.385 2.8726 17.385 3.0819C17.385 3.2912 17.3029 3.49215 17.1564 3.64158L16.5963 4.20165L15.4761 3.0815L16.0362 2.52222ZM8.98576 9.58376L14.352 4.20403L15.4611 5.31863L10.0924 10.6999L8.67047 11.0121L8.98576 9.58376Z" fill="white"/>
</svg>
