<svg width="30" height="28" viewBox="0 0 30 28" fill="none" xmlns="http://www.w3.org/2000/svg">
<path d="M5.21104 27.1993H25.414C26.5621 27.1993 27.6633 26.792 28.4752 26.0672C29.2871 25.3423 29.7432 24.3592 29.7432 23.3341V11.7387C29.7432 10.7136 29.2871 9.73051 28.4752 9.00565C27.6633 8.2808 26.5621 7.87358 25.414 7.87358H22.5278V6.5852C22.5278 4.87671 21.7677 3.23819 20.4145 2.0301C19.0614 0.822008 17.2261 0.143311 15.3125 0.143311C13.3989 0.143311 11.5636 0.822008 10.2105 2.0301C8.85736 3.23819 8.09717 4.87671 8.09717 6.5852V7.87358H5.21104C4.06286 7.87358 2.96171 8.2808 2.14983 9.00565C1.33795 9.73051 0.881836 10.7136 0.881836 11.7387V23.3341C0.881836 24.3592 1.33795 25.3423 2.14983 26.0672C2.96171 26.792 4.06286 27.1993 5.21104 27.1993ZM10.9833 6.5852C10.9833 5.56011 11.4394 4.57699 12.2513 3.85214C13.0632 3.12729 14.1643 2.72007 15.3125 2.72007C16.4607 2.72007 17.5618 3.12729 18.3737 3.85214C19.1856 4.57699 19.6417 5.56011 19.6417 6.5852V7.87358H10.9833V6.5852ZM3.76797 11.7387C3.76797 11.397 3.92001 11.0693 4.19063 10.8277C4.46126 10.5861 4.82831 10.4503 5.21104 10.4503H25.414C25.7967 10.4503 26.1637 10.5861 26.4344 10.8277C26.705 11.0693 26.857 11.397 26.857 11.7387V23.3341C26.857 23.6758 26.705 24.0035 26.4344 24.2451C26.1637 24.4868 25.7967 24.6225 25.414 24.6225H5.21104C4.82831 24.6225 4.46126 24.4868 4.19063 24.2451C3.92001 24.0035 3.76797 23.6758 3.76797 23.3341V11.7387Z" fill="#CECECE"/>
<path d="M15.3124 20.113C16.9064 20.113 18.1985 18.9593 18.1985 17.5362C18.1985 16.1131 16.9064 14.9595 15.3124 14.9595C13.7184 14.9595 12.4263 16.1131 12.4263 17.5362C12.4263 18.9593 13.7184 20.113 15.3124 20.113Z" fill="#CECECE"/>
</svg>
